<svg xmlns="http://www.w3.org/2000/svg" width="5091" height="3693" viewBox="0 0 5091 3693">
  <g id="Group_71" data-name="Group 71" transform="translate(-5669 -4563.138)" opacity="0.25">
    <ellipse id="Ellipse_42" data-name="Ellipse 42" cx="32.5" cy="32" rx="32.5" ry="32" transform="translate(5669 4563.138)" fill="#fff"/>
    <circle id="Ellipse_46" data-name="Ellipse 46" cx="32.5" cy="32.5" r="32.5" transform="translate(6140 4806.138)" fill="#fff"/>
    <ellipse id="Ellipse_43" data-name="Ellipse 43" cx="32.5" cy="32" rx="32.5" ry="32" transform="translate(5983 4563.138)" fill="#fff"/>
    <circle id="Ellipse_45" data-name="Ellipse 45" cx="32.5" cy="32.5" r="32.5" transform="translate(5826 4806.138)" fill="#fff"/>
    <circle id="Ellipse_42-2" data-name="Ellipse 42" cx="32" cy="32" r="32" transform="translate(6320 4563.138)" fill="#fff"/>
    <ellipse id="Ellipse_46-2" data-name="Ellipse 46" cx="32" cy="32.5" rx="32" ry="32.5" transform="translate(6791 4806.138)" fill="#fff"/>
    <circle id="Ellipse_43-2" data-name="Ellipse 43" cx="32" cy="32" r="32" transform="translate(6634 4563.138)" fill="#fff"/>
    <ellipse id="Ellipse_45-2" data-name="Ellipse 45" cx="32" cy="32.5" rx="32" ry="32.5" transform="translate(6477 4806.138)" fill="#fff"/>
    <circle id="Ellipse_42-3" data-name="Ellipse 42" cx="32" cy="32" r="32" transform="translate(6971 4563.138)" fill="#fff"/>
    <ellipse id="Ellipse_46-3" data-name="Ellipse 46" cx="32" cy="32.5" rx="32" ry="32.5" transform="translate(7442 4806.138)" fill="#fff"/>
    <circle id="Ellipse_43-3" data-name="Ellipse 43" cx="32" cy="32" r="32" transform="translate(7285 4563.138)" fill="#fff"/>
    <ellipse id="Ellipse_45-3" data-name="Ellipse 45" cx="32" cy="32.5" rx="32" ry="32.5" transform="translate(7128 4806.138)" fill="#fff"/>
    <ellipse id="Ellipse_42-4" data-name="Ellipse 42" cx="32.5" cy="32" rx="32.5" ry="32" transform="translate(7621 4563.138)" fill="#fff"/>
    <circle id="Ellipse_46-4" data-name="Ellipse 46" cx="32.5" cy="32.5" r="32.5" transform="translate(8092 4806.138)" fill="#fff"/>
    <ellipse id="Ellipse_43-4" data-name="Ellipse 43" cx="32.5" cy="32" rx="32.5" ry="32" transform="translate(7935 4563.138)" fill="#fff"/>
    <circle id="Ellipse_45-4" data-name="Ellipse 45" cx="32.5" cy="32.5" r="32.5" transform="translate(7778 4806.138)" fill="#fff"/>
    <ellipse id="Ellipse_42-5" data-name="Ellipse 42" cx="32.5" cy="32" rx="32.5" ry="32" transform="translate(8272 4563.138)" fill="#fff"/>
    <circle id="Ellipse_46-5" data-name="Ellipse 46" cx="32.5" cy="32.5" r="32.5" transform="translate(8743 4806.138)" fill="#fff"/>
    <ellipse id="Ellipse_43-5" data-name="Ellipse 43" cx="32.5" cy="32" rx="32.5" ry="32" transform="translate(8586 4563.138)" fill="#fff"/>
    <circle id="Ellipse_45-5" data-name="Ellipse 45" cx="32.5" cy="32.5" r="32.5" transform="translate(8429 4806.138)" fill="#fff"/>
    <ellipse id="Ellipse_42-6" data-name="Ellipse 42" cx="32.5" cy="32" rx="32.5" ry="32" transform="translate(8923 4563.138)" fill="#fff"/>
    <circle id="Ellipse_46-6" data-name="Ellipse 46" cx="32.5" cy="32.5" r="32.5" transform="translate(9394 4806.138)" fill="#fff"/>
    <ellipse id="Ellipse_43-6" data-name="Ellipse 43" cx="32.5" cy="32" rx="32.5" ry="32" transform="translate(9237 4563.138)" fill="#fff"/>
    <circle id="Ellipse_45-6" data-name="Ellipse 45" cx="32.5" cy="32.5" r="32.5" transform="translate(9080 4806.138)" fill="#fff"/>
    <circle id="Ellipse_42-7" data-name="Ellipse 42" cx="32" cy="32" r="32" transform="translate(9574 4563.138)" fill="#fff"/>
    <ellipse id="Ellipse_46-7" data-name="Ellipse 46" cx="32" cy="32.5" rx="32" ry="32.5" transform="translate(10045 4806.138)" fill="#fff"/>
    <circle id="Ellipse_43-7" data-name="Ellipse 43" cx="32" cy="32" r="32" transform="translate(9888 4563.138)" fill="#fff"/>
    <ellipse id="Ellipse_45-7" data-name="Ellipse 45" cx="32" cy="32.5" rx="32" ry="32.5" transform="translate(9731 4806.138)" fill="#fff"/>
    <circle id="Ellipse_42-8" data-name="Ellipse 42" cx="32" cy="32" r="32" transform="translate(10225 4563.138)" fill="#fff"/>
    <ellipse id="Ellipse_46-8" data-name="Ellipse 46" cx="32" cy="32.5" rx="32" ry="32.5" transform="translate(10696 4806.138)" fill="#fff"/>
    <circle id="Ellipse_43-8" data-name="Ellipse 43" cx="32" cy="32" r="32" transform="translate(10539 4563.138)" fill="#fff"/>
    <ellipse id="Ellipse_45-8" data-name="Ellipse 45" cx="32" cy="32.5" rx="32" ry="32.5" transform="translate(10382 4806.138)" fill="#fff"/>
    <circle id="Ellipse_42-9" data-name="Ellipse 42" cx="32.5" cy="32.5" r="32.5" transform="translate(5669 5046.138)" fill="#fff"/>
    <circle id="Ellipse_46-9" data-name="Ellipse 46" cx="32.5" cy="32.5" r="32.5" transform="translate(6140 5290.138)" fill="#fff"/>
    <circle id="Ellipse_43-9" data-name="Ellipse 43" cx="32.5" cy="32.5" r="32.5" transform="translate(5983 5046.138)" fill="#fff"/>
    <circle id="Ellipse_45-9" data-name="Ellipse 45" cx="32.5" cy="32.5" r="32.5" transform="translate(5826 5290.138)" fill="#fff"/>
    <ellipse id="Ellipse_42-10" data-name="Ellipse 42" cx="32" cy="32.5" rx="32" ry="32.5" transform="translate(6320 5046.138)" fill="#fff"/>
    <ellipse id="Ellipse_46-10" data-name="Ellipse 46" cx="32" cy="32.5" rx="32" ry="32.5" transform="translate(6791 5290.138)" fill="#fff"/>
    <ellipse id="Ellipse_43-10" data-name="Ellipse 43" cx="32" cy="32.5" rx="32" ry="32.5" transform="translate(6634 5046.138)" fill="#fff"/>
    <ellipse id="Ellipse_45-10" data-name="Ellipse 45" cx="32" cy="32.5" rx="32" ry="32.5" transform="translate(6477 5290.138)" fill="#fff"/>
    <ellipse id="Ellipse_42-11" data-name="Ellipse 42" cx="32" cy="32.5" rx="32" ry="32.5" transform="translate(6971 5046.138)" fill="#fff"/>
    <ellipse id="Ellipse_46-11" data-name="Ellipse 46" cx="32" cy="32.5" rx="32" ry="32.5" transform="translate(7442 5290.138)" fill="#fff"/>
    <ellipse id="Ellipse_43-11" data-name="Ellipse 43" cx="32" cy="32.5" rx="32" ry="32.5" transform="translate(7285 5046.138)" fill="#fff"/>
    <ellipse id="Ellipse_45-11" data-name="Ellipse 45" cx="32" cy="32.5" rx="32" ry="32.5" transform="translate(7128 5290.138)" fill="#fff"/>
    <circle id="Ellipse_42-12" data-name="Ellipse 42" cx="32.5" cy="32.5" r="32.5" transform="translate(7621 5046.138)" fill="#fff"/>
    <circle id="Ellipse_46-12" data-name="Ellipse 46" cx="32.5" cy="32.5" r="32.5" transform="translate(8092 5290.138)" fill="#fff"/>
    <circle id="Ellipse_43-12" data-name="Ellipse 43" cx="32.5" cy="32.5" r="32.5" transform="translate(7935 5046.138)" fill="#fff"/>
    <circle id="Ellipse_45-12" data-name="Ellipse 45" cx="32.5" cy="32.5" r="32.5" transform="translate(7778 5290.138)" fill="#fff"/>
    <circle id="Ellipse_42-13" data-name="Ellipse 42" cx="32.5" cy="32.5" r="32.5" transform="translate(8272 5046.138)" fill="#fff"/>
    <circle id="Ellipse_46-13" data-name="Ellipse 46" cx="32.5" cy="32.5" r="32.5" transform="translate(8743 5290.138)" fill="#fff"/>
    <circle id="Ellipse_43-13" data-name="Ellipse 43" cx="32.5" cy="32.5" r="32.5" transform="translate(8586 5046.138)" fill="#fff"/>
    <circle id="Ellipse_45-13" data-name="Ellipse 45" cx="32.5" cy="32.5" r="32.5" transform="translate(8429 5290.138)" fill="#fff"/>
    <circle id="Ellipse_42-14" data-name="Ellipse 42" cx="32.5" cy="32.5" r="32.5" transform="translate(8923 5046.138)" fill="#fff"/>
    <circle id="Ellipse_46-14" data-name="Ellipse 46" cx="32.5" cy="32.5" r="32.5" transform="translate(9394 5290.138)" fill="#fff"/>
    <circle id="Ellipse_43-14" data-name="Ellipse 43" cx="32.5" cy="32.5" r="32.5" transform="translate(9237 5046.138)" fill="#fff"/>
    <circle id="Ellipse_45-14" data-name="Ellipse 45" cx="32.5" cy="32.5" r="32.5" transform="translate(9080 5290.138)" fill="#fff"/>
    <ellipse id="Ellipse_42-15" data-name="Ellipse 42" cx="32" cy="32.5" rx="32" ry="32.5" transform="translate(9574 5046.138)" fill="#fff"/>
    <ellipse id="Ellipse_46-15" data-name="Ellipse 46" cx="32" cy="32.5" rx="32" ry="32.5" transform="translate(10045 5290.138)" fill="#fff"/>
    <ellipse id="Ellipse_43-15" data-name="Ellipse 43" cx="32" cy="32.5" rx="32" ry="32.5" transform="translate(9888 5046.138)" fill="#fff"/>
    <ellipse id="Ellipse_45-15" data-name="Ellipse 45" cx="32" cy="32.5" rx="32" ry="32.5" transform="translate(9731 5290.138)" fill="#fff"/>
    <ellipse id="Ellipse_42-16" data-name="Ellipse 42" cx="32" cy="32.5" rx="32" ry="32.5" transform="translate(10225 5046.138)" fill="#fff"/>
    <ellipse id="Ellipse_46-16" data-name="Ellipse 46" cx="32" cy="32.5" rx="32" ry="32.5" transform="translate(10696 5290.138)" fill="#fff"/>
    <ellipse id="Ellipse_43-16" data-name="Ellipse 43" cx="32" cy="32.5" rx="32" ry="32.5" transform="translate(10539 5046.138)" fill="#fff"/>
    <ellipse id="Ellipse_45-16" data-name="Ellipse 45" cx="32" cy="32.5" rx="32" ry="32.5" transform="translate(10382 5290.138)" fill="#fff"/>
    <circle id="Ellipse_42-17" data-name="Ellipse 42" cx="32.5" cy="32.5" r="32.5" transform="translate(5669 5530.138)" fill="#fff"/>
    <ellipse id="Ellipse_46-17" data-name="Ellipse 46" cx="32.5" cy="32" rx="32.5" ry="32" transform="translate(6140 5774.138)" fill="#fff"/>
    <circle id="Ellipse_43-17" data-name="Ellipse 43" cx="32.5" cy="32.5" r="32.5" transform="translate(5983 5530.138)" fill="#fff"/>
    <ellipse id="Ellipse_45-17" data-name="Ellipse 45" cx="32.5" cy="32" rx="32.5" ry="32" transform="translate(5826 5774.138)" fill="#fff"/>
    <ellipse id="Ellipse_42-18" data-name="Ellipse 42" cx="32" cy="32.5" rx="32" ry="32.5" transform="translate(6320 5530.138)" fill="#fff"/>
    <circle id="Ellipse_46-18" data-name="Ellipse 46" cx="32" cy="32" r="32" transform="translate(6791 5774.138)" fill="#fff"/>
    <ellipse id="Ellipse_43-18" data-name="Ellipse 43" cx="32" cy="32.5" rx="32" ry="32.5" transform="translate(6634 5530.138)" fill="#fff"/>
    <circle id="Ellipse_45-18" data-name="Ellipse 45" cx="32" cy="32" r="32" transform="translate(6477 5774.138)" fill="#fff"/>
    <ellipse id="Ellipse_42-19" data-name="Ellipse 42" cx="32" cy="32.5" rx="32" ry="32.5" transform="translate(6971 5530.138)" fill="#fff"/>
    <circle id="Ellipse_46-19" data-name="Ellipse 46" cx="32" cy="32" r="32" transform="translate(7442 5774.138)" fill="#fff"/>
    <ellipse id="Ellipse_43-19" data-name="Ellipse 43" cx="32" cy="32.5" rx="32" ry="32.5" transform="translate(7285 5530.138)" fill="#fff"/>
    <circle id="Ellipse_45-19" data-name="Ellipse 45" cx="32" cy="32" r="32" transform="translate(7128 5774.138)" fill="#fff"/>
    <circle id="Ellipse_42-20" data-name="Ellipse 42" cx="32.5" cy="32.5" r="32.5" transform="translate(7621 5530.138)" fill="#fff"/>
    <ellipse id="Ellipse_46-20" data-name="Ellipse 46" cx="32.5" cy="32" rx="32.5" ry="32" transform="translate(8092 5774.138)" fill="#fff"/>
    <circle id="Ellipse_43-20" data-name="Ellipse 43" cx="32.5" cy="32.5" r="32.5" transform="translate(7935 5530.138)" fill="#fff"/>
    <ellipse id="Ellipse_45-20" data-name="Ellipse 45" cx="32.5" cy="32" rx="32.5" ry="32" transform="translate(7778 5774.138)" fill="#fff"/>
    <circle id="Ellipse_42-21" data-name="Ellipse 42" cx="32.5" cy="32.5" r="32.5" transform="translate(8272 5530.138)" fill="#fff"/>
    <ellipse id="Ellipse_46-21" data-name="Ellipse 46" cx="32.5" cy="32" rx="32.5" ry="32" transform="translate(8743 5774.138)" fill="#fff"/>
    <circle id="Ellipse_43-21" data-name="Ellipse 43" cx="32.5" cy="32.5" r="32.5" transform="translate(8586 5530.138)" fill="#fff"/>
    <ellipse id="Ellipse_45-21" data-name="Ellipse 45" cx="32.5" cy="32" rx="32.5" ry="32" transform="translate(8429 5774.138)" fill="#fff"/>
    <circle id="Ellipse_42-22" data-name="Ellipse 42" cx="32.5" cy="32.5" r="32.5" transform="translate(8923 5530.138)" fill="#fff"/>
    <ellipse id="Ellipse_46-22" data-name="Ellipse 46" cx="32.5" cy="32" rx="32.5" ry="32" transform="translate(9394 5774.138)" fill="#fff"/>
    <circle id="Ellipse_43-22" data-name="Ellipse 43" cx="32.5" cy="32.5" r="32.5" transform="translate(9237 5530.138)" fill="#fff"/>
    <ellipse id="Ellipse_45-22" data-name="Ellipse 45" cx="32.5" cy="32" rx="32.5" ry="32" transform="translate(9080 5774.138)" fill="#fff"/>
    <ellipse id="Ellipse_42-23" data-name="Ellipse 42" cx="32" cy="32.5" rx="32" ry="32.5" transform="translate(9574 5530.138)" fill="#fff"/>
    <circle id="Ellipse_46-23" data-name="Ellipse 46" cx="32" cy="32" r="32" transform="translate(10045 5774.138)" fill="#fff"/>
    <ellipse id="Ellipse_43-23" data-name="Ellipse 43" cx="32" cy="32.5" rx="32" ry="32.5" transform="translate(9888 5530.138)" fill="#fff"/>
    <circle id="Ellipse_45-23" data-name="Ellipse 45" cx="32" cy="32" r="32" transform="translate(9731 5774.138)" fill="#fff"/>
    <ellipse id="Ellipse_42-24" data-name="Ellipse 42" cx="32" cy="32.5" rx="32" ry="32.5" transform="translate(10225 5530.138)" fill="#fff"/>
    <circle id="Ellipse_46-24" data-name="Ellipse 46" cx="32" cy="32" r="32" transform="translate(10696 5774.138)" fill="#fff"/>
    <ellipse id="Ellipse_43-24" data-name="Ellipse 43" cx="32" cy="32.5" rx="32" ry="32.5" transform="translate(10539 5530.138)" fill="#fff"/>
    <circle id="Ellipse_45-24" data-name="Ellipse 45" cx="32" cy="32" r="32" transform="translate(10382 5774.138)" fill="#fff"/>
    <ellipse id="Ellipse_42-25" data-name="Ellipse 42" cx="32.5" cy="32" rx="32.5" ry="32" transform="translate(5669 6014.138)" fill="#fff"/>
    <circle id="Ellipse_46-25" data-name="Ellipse 46" cx="32.5" cy="32.5" r="32.5" transform="translate(6140 6257.138)" fill="#fff"/>
    <ellipse id="Ellipse_43-25" data-name="Ellipse 43" cx="32.5" cy="32" rx="32.5" ry="32" transform="translate(5983 6014.138)" fill="#fff"/>
    <circle id="Ellipse_45-25" data-name="Ellipse 45" cx="32.5" cy="32.5" r="32.5" transform="translate(5826 6257.138)" fill="#fff"/>
    <circle id="Ellipse_42-26" data-name="Ellipse 42" cx="32" cy="32" r="32" transform="translate(6320 6014.138)" fill="#fff"/>
    <ellipse id="Ellipse_46-26" data-name="Ellipse 46" cx="32" cy="32.5" rx="32" ry="32.5" transform="translate(6791 6257.138)" fill="#fff"/>
    <circle id="Ellipse_43-26" data-name="Ellipse 43" cx="32" cy="32" r="32" transform="translate(6634 6014.138)" fill="#fff"/>
    <ellipse id="Ellipse_45-26" data-name="Ellipse 45" cx="32" cy="32.5" rx="32" ry="32.5" transform="translate(6477 6257.138)" fill="#fff"/>
    <circle id="Ellipse_42-27" data-name="Ellipse 42" cx="32" cy="32" r="32" transform="translate(6971 6014.138)" fill="#fff"/>
    <ellipse id="Ellipse_46-27" data-name="Ellipse 46" cx="32" cy="32.5" rx="32" ry="32.5" transform="translate(7442 6257.138)" fill="#fff"/>
    <circle id="Ellipse_43-27" data-name="Ellipse 43" cx="32" cy="32" r="32" transform="translate(7285 6014.138)" fill="#fff"/>
    <ellipse id="Ellipse_45-27" data-name="Ellipse 45" cx="32" cy="32.5" rx="32" ry="32.5" transform="translate(7128 6257.138)" fill="#fff"/>
    <ellipse id="Ellipse_42-28" data-name="Ellipse 42" cx="32.5" cy="32" rx="32.5" ry="32" transform="translate(7621 6014.138)" fill="#fff"/>
    <circle id="Ellipse_46-28" data-name="Ellipse 46" cx="32.5" cy="32.5" r="32.5" transform="translate(8092 6257.138)" fill="#fff"/>
    <ellipse id="Ellipse_43-28" data-name="Ellipse 43" cx="32.5" cy="32" rx="32.5" ry="32" transform="translate(7935 6014.138)" fill="#fff"/>
    <circle id="Ellipse_45-28" data-name="Ellipse 45" cx="32.5" cy="32.5" r="32.5" transform="translate(7778 6257.138)" fill="#fff"/>
    <ellipse id="Ellipse_42-29" data-name="Ellipse 42" cx="32.5" cy="32" rx="32.5" ry="32" transform="translate(8272 6014.138)" fill="#fff"/>
    <circle id="Ellipse_46-29" data-name="Ellipse 46" cx="32.5" cy="32.5" r="32.5" transform="translate(8743 6257.138)" fill="#fff"/>
    <ellipse id="Ellipse_43-29" data-name="Ellipse 43" cx="32.5" cy="32" rx="32.5" ry="32" transform="translate(8586 6014.138)" fill="#fff"/>
    <circle id="Ellipse_45-29" data-name="Ellipse 45" cx="32.5" cy="32.5" r="32.5" transform="translate(8429 6257.138)" fill="#fff"/>
    <ellipse id="Ellipse_42-30" data-name="Ellipse 42" cx="32.5" cy="32" rx="32.5" ry="32" transform="translate(8923 6014.138)" fill="#fff"/>
    <circle id="Ellipse_46-30" data-name="Ellipse 46" cx="32.5" cy="32.5" r="32.5" transform="translate(9394 6257.138)" fill="#fff"/>
    <ellipse id="Ellipse_43-30" data-name="Ellipse 43" cx="32.5" cy="32" rx="32.5" ry="32" transform="translate(9237 6014.138)" fill="#fff"/>
    <circle id="Ellipse_45-30" data-name="Ellipse 45" cx="32.5" cy="32.5" r="32.5" transform="translate(9080 6257.138)" fill="#fff"/>
    <circle id="Ellipse_42-31" data-name="Ellipse 42" cx="32" cy="32" r="32" transform="translate(9574 6014.138)" fill="#fff"/>
    <ellipse id="Ellipse_46-31" data-name="Ellipse 46" cx="32" cy="32.5" rx="32" ry="32.5" transform="translate(10045 6257.138)" fill="#fff"/>
    <circle id="Ellipse_43-31" data-name="Ellipse 43" cx="32" cy="32" r="32" transform="translate(9888 6014.138)" fill="#fff"/>
    <ellipse id="Ellipse_45-31" data-name="Ellipse 45" cx="32" cy="32.5" rx="32" ry="32.5" transform="translate(9731 6257.138)" fill="#fff"/>
    <circle id="Ellipse_42-32" data-name="Ellipse 42" cx="32" cy="32" r="32" transform="translate(10225 6014.138)" fill="#fff"/>
    <ellipse id="Ellipse_46-32" data-name="Ellipse 46" cx="32" cy="32.5" rx="32" ry="32.5" transform="translate(10696 6257.138)" fill="#fff"/>
    <circle id="Ellipse_43-32" data-name="Ellipse 43" cx="32" cy="32" r="32" transform="translate(10539 6014.138)" fill="#fff"/>
    <ellipse id="Ellipse_45-32" data-name="Ellipse 45" cx="32" cy="32.5" rx="32" ry="32.5" transform="translate(10382 6257.138)" fill="#fff"/>
    <circle id="Ellipse_42-33" data-name="Ellipse 42" cx="32.5" cy="32.5" r="32.5" transform="translate(5669 6497.138)" fill="#fff"/>
    <ellipse id="Ellipse_46-33" data-name="Ellipse 46" cx="32.5" cy="32" rx="32.5" ry="32" transform="translate(6140 6741.138)" fill="#fff"/>
    <circle id="Ellipse_43-33" data-name="Ellipse 43" cx="32.5" cy="32.5" r="32.5" transform="translate(5983 6497.138)" fill="#fff"/>
    <ellipse id="Ellipse_45-33" data-name="Ellipse 45" cx="32.5" cy="32" rx="32.5" ry="32" transform="translate(5826 6741.138)" fill="#fff"/>
    <ellipse id="Ellipse_42-34" data-name="Ellipse 42" cx="32" cy="32.5" rx="32" ry="32.5" transform="translate(6320 6497.138)" fill="#fff"/>
    <circle id="Ellipse_46-34" data-name="Ellipse 46" cx="32" cy="32" r="32" transform="translate(6791 6741.138)" fill="#fff"/>
    <ellipse id="Ellipse_43-34" data-name="Ellipse 43" cx="32" cy="32.5" rx="32" ry="32.5" transform="translate(6634 6497.138)" fill="#fff"/>
    <circle id="Ellipse_45-34" data-name="Ellipse 45" cx="32" cy="32" r="32" transform="translate(6477 6741.138)" fill="#fff"/>
    <ellipse id="Ellipse_42-35" data-name="Ellipse 42" cx="32" cy="32.5" rx="32" ry="32.5" transform="translate(6971 6497.138)" fill="#fff"/>
    <circle id="Ellipse_46-35" data-name="Ellipse 46" cx="32" cy="32" r="32" transform="translate(7442 6741.138)" fill="#fff"/>
    <ellipse id="Ellipse_43-35" data-name="Ellipse 43" cx="32" cy="32.5" rx="32" ry="32.5" transform="translate(7285 6497.138)" fill="#fff"/>
    <circle id="Ellipse_45-35" data-name="Ellipse 45" cx="32" cy="32" r="32" transform="translate(7128 6741.138)" fill="#fff"/>
    <circle id="Ellipse_42-36" data-name="Ellipse 42" cx="32.5" cy="32.5" r="32.5" transform="translate(7621 6497.138)" fill="#fff"/>
    <ellipse id="Ellipse_46-36" data-name="Ellipse 46" cx="32.5" cy="32" rx="32.5" ry="32" transform="translate(8092 6741.138)" fill="#fff"/>
    <circle id="Ellipse_43-36" data-name="Ellipse 43" cx="32.5" cy="32.5" r="32.5" transform="translate(7935 6497.138)" fill="#fff"/>
    <ellipse id="Ellipse_45-36" data-name="Ellipse 45" cx="32.5" cy="32" rx="32.5" ry="32" transform="translate(7778 6741.138)" fill="#fff"/>
    <circle id="Ellipse_42-37" data-name="Ellipse 42" cx="32.5" cy="32.5" r="32.5" transform="translate(8272 6497.138)" fill="#fff"/>
    <ellipse id="Ellipse_46-37" data-name="Ellipse 46" cx="32.5" cy="32" rx="32.5" ry="32" transform="translate(8743 6741.138)" fill="#fff"/>
    <circle id="Ellipse_43-37" data-name="Ellipse 43" cx="32.5" cy="32.5" r="32.5" transform="translate(8586 6497.138)" fill="#fff"/>
    <ellipse id="Ellipse_45-37" data-name="Ellipse 45" cx="32.5" cy="32" rx="32.5" ry="32" transform="translate(8429 6741.138)" fill="#fff"/>
    <circle id="Ellipse_42-38" data-name="Ellipse 42" cx="32.5" cy="32.5" r="32.5" transform="translate(8923 6497.138)" fill="#fff"/>
    <ellipse id="Ellipse_46-38" data-name="Ellipse 46" cx="32.5" cy="32" rx="32.5" ry="32" transform="translate(9394 6741.138)" fill="#fff"/>
    <circle id="Ellipse_43-38" data-name="Ellipse 43" cx="32.5" cy="32.5" r="32.5" transform="translate(9237 6497.138)" fill="#fff"/>
    <ellipse id="Ellipse_45-38" data-name="Ellipse 45" cx="32.5" cy="32" rx="32.5" ry="32" transform="translate(9080 6741.138)" fill="#fff"/>
    <ellipse id="Ellipse_42-39" data-name="Ellipse 42" cx="32" cy="32.5" rx="32" ry="32.5" transform="translate(9574 6497.138)" fill="#fff"/>
    <circle id="Ellipse_46-39" data-name="Ellipse 46" cx="32" cy="32" r="32" transform="translate(10045 6741.138)" fill="#fff"/>
    <ellipse id="Ellipse_43-39" data-name="Ellipse 43" cx="32" cy="32.5" rx="32" ry="32.5" transform="translate(9888 6497.138)" fill="#fff"/>
    <circle id="Ellipse_45-39" data-name="Ellipse 45" cx="32" cy="32" r="32" transform="translate(9731 6741.138)" fill="#fff"/>
    <ellipse id="Ellipse_42-40" data-name="Ellipse 42" cx="32" cy="32.5" rx="32" ry="32.5" transform="translate(10225 6497.138)" fill="#fff"/>
    <circle id="Ellipse_46-40" data-name="Ellipse 46" cx="32" cy="32" r="32" transform="translate(10696 6741.138)" fill="#fff"/>
    <ellipse id="Ellipse_43-40" data-name="Ellipse 43" cx="32" cy="32.5" rx="32" ry="32.5" transform="translate(10539 6497.138)" fill="#fff"/>
    <circle id="Ellipse_45-40" data-name="Ellipse 45" cx="32" cy="32" r="32" transform="translate(10382 6741.138)" fill="#fff"/>
    <ellipse id="Ellipse_42-41" data-name="Ellipse 42" cx="32.5" cy="32" rx="32.5" ry="32" transform="translate(5669 6981.138)" fill="#fff"/>
    <circle id="Ellipse_46-41" data-name="Ellipse 46" cx="32.5" cy="32.5" r="32.5" transform="translate(6140 7224.138)" fill="#fff"/>
    <ellipse id="Ellipse_43-41" data-name="Ellipse 43" cx="32.5" cy="32" rx="32.5" ry="32" transform="translate(5983 6981.138)" fill="#fff"/>
    <circle id="Ellipse_45-41" data-name="Ellipse 45" cx="32.5" cy="32.5" r="32.5" transform="translate(5826 7224.138)" fill="#fff"/>
    <circle id="Ellipse_42-42" data-name="Ellipse 42" cx="32" cy="32" r="32" transform="translate(6320 6981.138)" fill="#fff"/>
    <ellipse id="Ellipse_46-42" data-name="Ellipse 46" cx="32" cy="32.5" rx="32" ry="32.5" transform="translate(6791 7224.138)" fill="#fff"/>
    <circle id="Ellipse_43-42" data-name="Ellipse 43" cx="32" cy="32" r="32" transform="translate(6634 6981.138)" fill="#fff"/>
    <ellipse id="Ellipse_45-42" data-name="Ellipse 45" cx="32" cy="32.5" rx="32" ry="32.5" transform="translate(6477 7224.138)" fill="#fff"/>
    <circle id="Ellipse_42-43" data-name="Ellipse 42" cx="32" cy="32" r="32" transform="translate(6971 6981.138)" fill="#fff"/>
    <ellipse id="Ellipse_46-43" data-name="Ellipse 46" cx="32" cy="32.5" rx="32" ry="32.5" transform="translate(7442 7224.138)" fill="#fff"/>
    <circle id="Ellipse_43-43" data-name="Ellipse 43" cx="32" cy="32" r="32" transform="translate(7285 6981.138)" fill="#fff"/>
    <ellipse id="Ellipse_45-43" data-name="Ellipse 45" cx="32" cy="32.5" rx="32" ry="32.5" transform="translate(7128 7224.138)" fill="#fff"/>
    <ellipse id="Ellipse_42-44" data-name="Ellipse 42" cx="32.5" cy="32" rx="32.5" ry="32" transform="translate(7621 6981.138)" fill="#fff"/>
    <circle id="Ellipse_46-44" data-name="Ellipse 46" cx="32.5" cy="32.5" r="32.5" transform="translate(8092 7224.138)" fill="#fff"/>
    <ellipse id="Ellipse_43-44" data-name="Ellipse 43" cx="32.5" cy="32" rx="32.5" ry="32" transform="translate(7935 6981.138)" fill="#fff"/>
    <circle id="Ellipse_45-44" data-name="Ellipse 45" cx="32.5" cy="32.5" r="32.5" transform="translate(7778 7224.138)" fill="#fff"/>
    <ellipse id="Ellipse_42-45" data-name="Ellipse 42" cx="32.5" cy="32" rx="32.5" ry="32" transform="translate(8272 6981.138)" fill="#fff"/>
    <circle id="Ellipse_46-45" data-name="Ellipse 46" cx="32.5" cy="32.5" r="32.5" transform="translate(8743 7224.138)" fill="#fff"/>
    <ellipse id="Ellipse_43-45" data-name="Ellipse 43" cx="32.5" cy="32" rx="32.5" ry="32" transform="translate(8586 6981.138)" fill="#fff"/>
    <circle id="Ellipse_45-45" data-name="Ellipse 45" cx="32.5" cy="32.5" r="32.5" transform="translate(8429 7224.138)" fill="#fff"/>
    <ellipse id="Ellipse_42-46" data-name="Ellipse 42" cx="32.5" cy="32" rx="32.5" ry="32" transform="translate(8923 6981.138)" fill="#fff"/>
    <circle id="Ellipse_46-46" data-name="Ellipse 46" cx="32.5" cy="32.5" r="32.5" transform="translate(9394 7224.138)" fill="#fff"/>
    <ellipse id="Ellipse_43-46" data-name="Ellipse 43" cx="32.5" cy="32" rx="32.5" ry="32" transform="translate(9237 6981.138)" fill="#fff"/>
    <circle id="Ellipse_45-46" data-name="Ellipse 45" cx="32.5" cy="32.5" r="32.5" transform="translate(9080 7224.138)" fill="#fff"/>
    <circle id="Ellipse_42-47" data-name="Ellipse 42" cx="32" cy="32" r="32" transform="translate(9574 6981.138)" fill="#fff"/>
    <ellipse id="Ellipse_46-47" data-name="Ellipse 46" cx="32" cy="32.5" rx="32" ry="32.5" transform="translate(10045 7224.138)" fill="#fff"/>
    <circle id="Ellipse_43-47" data-name="Ellipse 43" cx="32" cy="32" r="32" transform="translate(9888 6981.138)" fill="#fff"/>
    <ellipse id="Ellipse_45-47" data-name="Ellipse 45" cx="32" cy="32.5" rx="32" ry="32.5" transform="translate(9731 7224.138)" fill="#fff"/>
    <circle id="Ellipse_42-48" data-name="Ellipse 42" cx="32" cy="32" r="32" transform="translate(10225 6981.138)" fill="#fff"/>
    <ellipse id="Ellipse_46-48" data-name="Ellipse 46" cx="32" cy="32.5" rx="32" ry="32.5" transform="translate(10696 7224.138)" fill="#fff"/>
    <circle id="Ellipse_43-48" data-name="Ellipse 43" cx="32" cy="32" r="32" transform="translate(10539 6981.138)" fill="#fff"/>
    <ellipse id="Ellipse_45-48" data-name="Ellipse 45" cx="32" cy="32.5" rx="32" ry="32.5" transform="translate(10382 7224.138)" fill="#fff"/>
    <circle id="Ellipse_42-49" data-name="Ellipse 42" cx="32.5" cy="32.5" r="32.5" transform="translate(5669 7464.138)" fill="#fff"/>
    <ellipse id="Ellipse_46-49" data-name="Ellipse 46" cx="32.5" cy="32" rx="32.5" ry="32" transform="translate(6140 7708.137)" fill="#fff"/>
    <circle id="Ellipse_43-49" data-name="Ellipse 43" cx="32.5" cy="32.5" r="32.5" transform="translate(5983 7464.138)" fill="#fff"/>
    <ellipse id="Ellipse_45-49" data-name="Ellipse 45" cx="32.5" cy="32" rx="32.5" ry="32" transform="translate(5826 7708.137)" fill="#fff"/>
    <ellipse id="Ellipse_42-50" data-name="Ellipse 42" cx="32" cy="32.5" rx="32" ry="32.5" transform="translate(6320 7464.138)" fill="#fff"/>
    <circle id="Ellipse_46-50" data-name="Ellipse 46" cx="32" cy="32" r="32" transform="translate(6791 7708.137)" fill="#fff"/>
    <ellipse id="Ellipse_43-50" data-name="Ellipse 43" cx="32" cy="32.5" rx="32" ry="32.5" transform="translate(6634 7464.138)" fill="#fff"/>
    <circle id="Ellipse_45-50" data-name="Ellipse 45" cx="32" cy="32" r="32" transform="translate(6477 7708.137)" fill="#fff"/>
    <ellipse id="Ellipse_42-51" data-name="Ellipse 42" cx="32" cy="32.5" rx="32" ry="32.5" transform="translate(6971 7464.138)" fill="#fff"/>
    <circle id="Ellipse_46-51" data-name="Ellipse 46" cx="32" cy="32" r="32" transform="translate(7442 7708.137)" fill="#fff"/>
    <ellipse id="Ellipse_43-51" data-name="Ellipse 43" cx="32" cy="32.5" rx="32" ry="32.5" transform="translate(7285 7464.138)" fill="#fff"/>
    <circle id="Ellipse_45-51" data-name="Ellipse 45" cx="32" cy="32" r="32" transform="translate(7128 7708.137)" fill="#fff"/>
    <circle id="Ellipse_42-52" data-name="Ellipse 42" cx="32.5" cy="32.5" r="32.5" transform="translate(7621 7464.138)" fill="#fff"/>
    <ellipse id="Ellipse_46-52" data-name="Ellipse 46" cx="32.5" cy="32" rx="32.5" ry="32" transform="translate(8092 7708.137)" fill="#fff"/>
    <circle id="Ellipse_43-52" data-name="Ellipse 43" cx="32.5" cy="32.5" r="32.5" transform="translate(7935 7464.138)" fill="#fff"/>
    <ellipse id="Ellipse_45-52" data-name="Ellipse 45" cx="32.5" cy="32" rx="32.5" ry="32" transform="translate(7778 7708.137)" fill="#fff"/>
    <circle id="Ellipse_42-53" data-name="Ellipse 42" cx="32.5" cy="32.5" r="32.5" transform="translate(8272 7464.138)" fill="#fff"/>
    <ellipse id="Ellipse_46-53" data-name="Ellipse 46" cx="32.5" cy="32" rx="32.5" ry="32" transform="translate(8743 7708.137)" fill="#fff"/>
    <circle id="Ellipse_43-53" data-name="Ellipse 43" cx="32.5" cy="32.5" r="32.5" transform="translate(8586 7464.138)" fill="#fff"/>
    <ellipse id="Ellipse_45-53" data-name="Ellipse 45" cx="32.5" cy="32" rx="32.5" ry="32" transform="translate(8429 7708.137)" fill="#fff"/>
    <circle id="Ellipse_42-54" data-name="Ellipse 42" cx="32.5" cy="32.5" r="32.5" transform="translate(8923 7464.138)" fill="#fff"/>
    <ellipse id="Ellipse_46-54" data-name="Ellipse 46" cx="32.5" cy="32" rx="32.5" ry="32" transform="translate(9394 7708.137)" fill="#fff"/>
    <circle id="Ellipse_43-54" data-name="Ellipse 43" cx="32.5" cy="32.5" r="32.5" transform="translate(9237 7464.138)" fill="#fff"/>
    <ellipse id="Ellipse_45-54" data-name="Ellipse 45" cx="32.5" cy="32" rx="32.5" ry="32" transform="translate(9080 7708.137)" fill="#fff"/>
    <ellipse id="Ellipse_42-55" data-name="Ellipse 42" cx="32" cy="32.5" rx="32" ry="32.5" transform="translate(9574 7464.138)" fill="#fff"/>
    <circle id="Ellipse_46-55" data-name="Ellipse 46" cx="32" cy="32" r="32" transform="translate(10045 7708.137)" fill="#fff"/>
    <ellipse id="Ellipse_43-55" data-name="Ellipse 43" cx="32" cy="32.5" rx="32" ry="32.5" transform="translate(9888 7464.138)" fill="#fff"/>
    <circle id="Ellipse_45-55" data-name="Ellipse 45" cx="32" cy="32" r="32" transform="translate(9731 7708.137)" fill="#fff"/>
    <ellipse id="Ellipse_42-56" data-name="Ellipse 42" cx="32" cy="32.5" rx="32" ry="32.5" transform="translate(10225 7464.138)" fill="#fff"/>
    <circle id="Ellipse_46-56" data-name="Ellipse 46" cx="32" cy="32" r="32" transform="translate(10696 7708.137)" fill="#fff"/>
    <ellipse id="Ellipse_43-56" data-name="Ellipse 43" cx="32" cy="32.5" rx="32" ry="32.5" transform="translate(10539 7464.138)" fill="#fff"/>
    <circle id="Ellipse_45-56" data-name="Ellipse 45" cx="32" cy="32" r="32" transform="translate(10382 7708.137)" fill="#fff"/>
    <ellipse id="Ellipse_42-57" data-name="Ellipse 42" cx="32.5" cy="32" rx="32.5" ry="32" transform="translate(5669 7948.138)" fill="#fff"/>
    <circle id="Ellipse_46-57" data-name="Ellipse 46" cx="32.5" cy="32.5" r="32.5" transform="translate(6140 8191.138)" fill="#fff"/>
    <ellipse id="Ellipse_43-57" data-name="Ellipse 43" cx="32.5" cy="32" rx="32.5" ry="32" transform="translate(5983 7948.138)" fill="#fff"/>
    <circle id="Ellipse_45-57" data-name="Ellipse 45" cx="32.5" cy="32.5" r="32.5" transform="translate(5826 8191.138)" fill="#fff"/>
    <circle id="Ellipse_42-58" data-name="Ellipse 42" cx="32" cy="32" r="32" transform="translate(6320 7948.138)" fill="#fff"/>
    <ellipse id="Ellipse_46-58" data-name="Ellipse 46" cx="32" cy="32.5" rx="32" ry="32.5" transform="translate(6791 8191.138)" fill="#fff"/>
    <circle id="Ellipse_43-58" data-name="Ellipse 43" cx="32" cy="32" r="32" transform="translate(6634 7948.138)" fill="#fff"/>
    <ellipse id="Ellipse_45-58" data-name="Ellipse 45" cx="32" cy="32.5" rx="32" ry="32.5" transform="translate(6477 8191.138)" fill="#fff"/>
    <circle id="Ellipse_42-59" data-name="Ellipse 42" cx="32" cy="32" r="32" transform="translate(6971 7948.138)" fill="#fff"/>
    <ellipse id="Ellipse_46-59" data-name="Ellipse 46" cx="32" cy="32.5" rx="32" ry="32.5" transform="translate(7442 8191.138)" fill="#fff"/>
    <circle id="Ellipse_43-59" data-name="Ellipse 43" cx="32" cy="32" r="32" transform="translate(7285 7948.138)" fill="#fff"/>
    <ellipse id="Ellipse_45-59" data-name="Ellipse 45" cx="32" cy="32.5" rx="32" ry="32.5" transform="translate(7128 8191.138)" fill="#fff"/>
    <ellipse id="Ellipse_42-60" data-name="Ellipse 42" cx="32.5" cy="32" rx="32.5" ry="32" transform="translate(7621 7948.138)" fill="#fff"/>
    <circle id="Ellipse_46-60" data-name="Ellipse 46" cx="32.5" cy="32.5" r="32.5" transform="translate(8092 8191.138)" fill="#fff"/>
    <ellipse id="Ellipse_43-60" data-name="Ellipse 43" cx="32.5" cy="32" rx="32.5" ry="32" transform="translate(7935 7948.138)" fill="#fff"/>
    <circle id="Ellipse_45-60" data-name="Ellipse 45" cx="32.5" cy="32.5" r="32.5" transform="translate(7778 8191.138)" fill="#fff"/>
    <ellipse id="Ellipse_42-61" data-name="Ellipse 42" cx="32.5" cy="32" rx="32.5" ry="32" transform="translate(8272 7948.138)" fill="#fff"/>
    <circle id="Ellipse_46-61" data-name="Ellipse 46" cx="32.5" cy="32.5" r="32.5" transform="translate(8743 8191.138)" fill="#fff"/>
    <ellipse id="Ellipse_43-61" data-name="Ellipse 43" cx="32.5" cy="32" rx="32.5" ry="32" transform="translate(8586 7948.138)" fill="#fff"/>
    <circle id="Ellipse_45-61" data-name="Ellipse 45" cx="32.5" cy="32.5" r="32.5" transform="translate(8429 8191.138)" fill="#fff"/>
    <ellipse id="Ellipse_42-62" data-name="Ellipse 42" cx="32.5" cy="32" rx="32.5" ry="32" transform="translate(8923 7948.138)" fill="#fff"/>
    <circle id="Ellipse_46-62" data-name="Ellipse 46" cx="32.5" cy="32.5" r="32.5" transform="translate(9394 8191.138)" fill="#fff"/>
    <ellipse id="Ellipse_43-62" data-name="Ellipse 43" cx="32.5" cy="32" rx="32.5" ry="32" transform="translate(9237 7948.138)" fill="#fff"/>
    <circle id="Ellipse_45-62" data-name="Ellipse 45" cx="32.5" cy="32.5" r="32.5" transform="translate(9080 8191.138)" fill="#fff"/>
    <circle id="Ellipse_42-63" data-name="Ellipse 42" cx="32" cy="32" r="32" transform="translate(9574 7948.138)" fill="#fff"/>
    <ellipse id="Ellipse_46-63" data-name="Ellipse 46" cx="32" cy="32.5" rx="32" ry="32.5" transform="translate(10045 8191.138)" fill="#fff"/>
    <circle id="Ellipse_43-63" data-name="Ellipse 43" cx="32" cy="32" r="32" transform="translate(9888 7948.138)" fill="#fff"/>
    <ellipse id="Ellipse_45-63" data-name="Ellipse 45" cx="32" cy="32.5" rx="32" ry="32.5" transform="translate(9731 8191.138)" fill="#fff"/>
    <circle id="Ellipse_42-64" data-name="Ellipse 42" cx="32" cy="32" r="32" transform="translate(10225 7948.138)" fill="#fff"/>
    <ellipse id="Ellipse_46-64" data-name="Ellipse 46" cx="32" cy="32.5" rx="32" ry="32.5" transform="translate(10696 8191.138)" fill="#fff"/>
    <circle id="Ellipse_43-64" data-name="Ellipse 43" cx="32" cy="32" r="32" transform="translate(10539 7948.138)" fill="#fff"/>
    <ellipse id="Ellipse_45-64" data-name="Ellipse 45" cx="32" cy="32.5" rx="32" ry="32.5" transform="translate(10382 8191.138)" fill="#fff"/>
  </g>
</svg>
